<?xml version="1.0" encoding="utf-8"?>
<!-- Generator: Adobe Illustrator 28.2.0, SVG Export Plug-In . SVG Version: 6.00 Build 0)  -->
<svg version="1.1" id="Layer_1" xmlns="http://www.w3.org/2000/svg" xmlns:xlink="http://www.w3.org/1999/xlink" x="0px" y="0px"
	 viewBox="0 0 250 240.1" style="enable-background:new 0 0 250 240.1;" xml:space="preserve">
<style type="text/css">
	.st0{fill:#FFFFFF;}
</style>
<g transform="matrix(1.3333 0 0 -1.3333 3.0382 747.54)">
	<path class="st0" d="M134.3,469.6l-23.2-2.8c11.6,18.5,17.9,35.7,36.6,54.5C142.5,504.8,138.3,486.1,134.3,469.6 M180,406
		c-15.8-8.2-27.7-6.5-29,3.4c-1.4,11-0.6,26.6-0.1,32.5c0.2,2.2,0.9,9.2,1.3,11.3c5.4,1.1,12.6,3.8,12.6-5.6
		c2.7,1.4,7.7,5.5,8.6,9.9c4.8,22.5-18.9,16.6-18.9,16.6c5.8,26.6,12,55,25.2,78.4l-13.2,6.3c-8.9-6.8-17.9-13.7-25.4-14.8
		c-6.8-1.6-48.6-4.9-45.6,14.2c-4.7-0.4-7.3-5.9-7.3-10.6c1.5-20.6,28.3-16.5,44.6-18.6c-16.8-21.1-31.6-42.9-45-65.5
		c-10.6-2-12,11.1-10.2,14.7c0,0-7-2-9.7-9.6c-3.3-8,0.4-21.7,11.8-22.4c-11.3-19.9-24.8-52.4-52.6-45.9c-9.3,1.9-20.1,17.6-14.5,27
		c3.4,4.8-1.7,8.1-7.5,1c-14.4-15.9-0.5-47.6,29.6-45.7c32.4-0.7,54.3,39.6,66,63.5l30.7,4.8l-1.9-25.1c-3.9-62.3,41-38.3,41-38.3
		c6.2,2.8,12.8,9.7,12.6,17.6C183,407.8,181.5,406.8,180,406"/>
</g>
</svg>
