<?xml version="1.0" encoding="UTF-8"?>
<svg id="Layer_2" data-name="Layer 2" xmlns="http://www.w3.org/2000/svg" viewBox="0 0 666.67 666.67">
  <defs>
    <style>
      .cls-1 {
        fill: #f2f2f2;
        fill-rule: evenodd;
        stroke-width: 0px;
      }
    </style>
  </defs>
  <g id="Layer_1-2" data-name="Layer 1">
    <path class="cls-1" d="M183.32,112.83c51.84,58.74,83.35,135.96,83.35,220.5s-31.51,161.76-83.35,220.5c42.74,29.14,94.37,46.16,150.02,46.16s107.28-17.02,150.02-46.16c-51.84-58.74-83.35-135.96-83.35-220.5s31.51-161.76,83.35-220.5c-42.74-29.15-94.37-46.16-150.02-46.16s-107.28,17.02-150.02,46.16ZM533.33,156.94c-41.52,47.03-66.67,108.76-66.67,176.39s25.15,129.36,66.67,176.39c41.52-47.03,66.67-108.76,66.67-176.39s-25.15-129.36-66.67-176.39ZM133.33,509.72c41.52-47.03,66.67-108.76,66.67-176.39s-25.15-129.36-66.67-176.39c-41.52,47.03-66.67,108.76-66.67,176.39s25.15,129.36,66.67,176.39ZM111.1,84.88C170.05,32.12,247.98,0,333.33,0s163.28,32.12,222.23,84.88c68.14,60.99,111.1,149.72,111.1,248.45s-42.96,187.46-111.1,248.45c-58.95,52.76-136.88,84.88-222.23,84.88s-163.28-32.12-222.23-84.88C42.96,520.79,0,432.06,0,333.33S42.96,145.87,111.1,84.88Z"/>
  </g>
</svg>