<?xml version="1.0" encoding="UTF-8"?>
<svg id="Layer_2" data-name="Layer 2" xmlns="http://www.w3.org/2000/svg" viewBox="0 0 666.7 666.78">
  <defs>
    <style>
      .cls-1 {
        fill-rule: evenodd;
      }

      .cls-1, .cls-2 {
        fill: #f2f2f2;
        stroke-width: 0px;
      }
    </style>
  </defs>
  <g id="Layer_1-2" data-name="Layer 1">
    <g>
      <path class="cls-1" d="M162.19,619.49c-47.2-28.18-88.07-68.45-117.51-119.44C15.26,449.11.83,393.62,0,338.7l4.82.95c98.3,19.36,210.13-15.64,302.06-72.08,12.09-7.42,23.94-15.28,35.47-23.52,13.77,17.2,26.11,34.64,36.04,51.85,12.46,21.58,23.73,47.24,33.8,74.66-17.25,8.35-34.06,17.54-50.26,27.4-93.06,56.63-172.46,139.22-199.73,221.49v.04ZM475.35,634.98c-86.83,41-183.94,41.26-267.96,7.04l2.27-6.84c22.12-66.73,90.65-141.2,178.26-194.51,13.16-8.01,26.6-15.45,40.22-22.25,8.41,27.66,15.69,55.72,21.84,82.07,7.98,34.18,13.9,64.82,17.82,86.91,1.96,11.04,3.42,19.92,4.38,26.01.48,3.05.84,5.4,1.08,6.97l.26,1.77.06.43.02.12,1.75,12.28Z"/>
      <path class="cls-2" d="M474.23,398.15c62.92-23.96,127.05-33.17,182.56-20.99l6.82,1.5c-4.06,29.47-12.04,58.32-23.71,85.7-24.15,56.64-64.1,107.03-117.92,143.88l-.41-2.64c-1.01-6.37-2.52-15.57-4.54-26.94-4.04-22.74-10.13-54.28-18.36-89.53-6.63-28.43-14.75-59.72-24.44-90.98Z"/>
      <path class="cls-2" d="M381.78,213.31c57.62-48.97,102.9-107.03,122.41-164.98l.35-1.04c47.19,28.18,88.06,68.44,117.49,119.42,29.43,50.97,43.86,106.48,44.68,161.42-66.52-14.38-139.54-3.37-208.53,22.63-10.69-28.79-22.83-56.23-36.48-79.88-11.21-19.41-24.88-38.77-39.91-57.59Z"/>
      <path class="cls-2" d="M210.65,48.53c-8.4-6.64-15.24-11.89-20.01-15.49l-.75-.56C248.65,4.4,312.18-4.97,373.21,2.43c29.58,3.59,58.57,11.11,86.15,22.35l-2.56,7.61c-15.91,47.27-55,98.36-107.61,143.02-24.34-26.5-50.02-51.05-73.42-72.04-25.24-22.64-48.33-41.56-65.12-54.84Z"/>
      <path class="cls-2" d="M280.71,224.96c-86.22,52.94-185.01,81.63-266.23,65.63l-11.42-2.25C15.37,198.56,64.01,114.65,142.75,59.91l10.93,7.95.07.05.31.23,1.3.96c1.16.86,2.9,2.15,5.15,3.85,4.5,3.4,11.05,8.42,19.13,14.81,16.18,12.79,38.44,31.05,62.75,52.85,21.99,19.73,45.25,42.01,67.07,65.49-9.31,6.53-18.9,12.83-28.74,18.87Z"/>
    </g>
  </g>
</svg>