<?xml version="1.0" encoding="UTF-8"?>
<svg id="Layer_2" data-name="Layer 2" xmlns="http://www.w3.org/2000/svg" viewBox="0 0 480 720">
  <defs>
    <style>
      .cls-1 {
        fill: #f2f2f2;
        stroke-width: 0px;
      }
    </style>
  </defs>
  <g id="beer">
    <path class="cls-1" d="M480,213.33V53.33S426.67,0,240,0,0,53.33,0,53.33v160c1.54,74.21,19.77,147.13,53.33,213.33,33.36,76.52,33.36,163.48,0,240,0,0,0,53.33,186.67,53.33s186.67-53.33,186.67-53.33c-33.36-76.52-33.36-163.48,0-240,33.57-66.21,51.8-139.12,53.33-213.33ZM240,666.67c-42.49,1.87-85-3.18-125.87-14.93,10.83-38.53,16.21-78.38,16-118.4h219.73c-.21,40.02,5.17,79.87,16,118.4-40.87,11.75-83.38,16.8-125.87,14.93ZM240,213.33c-63.27,1.59-126.37-7.42-186.67-26.67v-106.67c60.32-19.14,123.4-28.15,186.67-26.67,63.27-1.48,126.35,7.53,186.67,26.67v106.67c-60.3,19.25-123.39,28.26-186.67,26.67Z"/>
  </g>
</svg>