<?xml version="1.0" encoding="UTF-8"?>
<svg id="Layer_2" data-name="Layer 2" xmlns="http://www.w3.org/2000/svg" viewBox="0 0 533.43 533">
  <defs>
    <style>
      .cls-1 {
        fill: #f2f2f2;
        stroke-width: 0px;
      }
    </style>
  </defs>
  <g id="Layer_1-2" data-name="Layer 1">
    <g>
      <path class="cls-1" d="M14.5,448c-18.8,20.2-17.7,51.8,2.5,70.7,19.2,17.9,49,17.9,68.2,0l164-164-70.7-70.7L14.5,448Z"/>
      <polygon class="cls-1" points="424.3 144.1 495.7 107.1 533.2 34.9 498.3 0 426.1 37.5 389.1 108.8 302.2 195.8 337.4 231.1 424.3 144.1"/>
      <path class="cls-1" d="M439.9,333.5h-6.8c-11.8.1-23.5,2.2-34.6,6.4l-204.8-205.4c4.1-11,6.1-22.6,6.1-34.3l-.7-6.7C196,39,149.3-2.7,94.7.4c-12.9.7-25.6,4-37.3,9.6l66.7,66.7c3.4,3.4,5.9,7.5,7.6,12,6.3,17.3-2.6,36.4-19.9,42.8-3.9,1.4-7.9,2.1-12,2-3.8-.1-7.6-.9-11.1-2.3-4.5-1.6-8.5-4.2-12-7.4L10,57.1c-23.9,49.1-3.5,108.3,45.6,132.2,11.8,5.7,24.5,9.1,37.6,9.8l6.6,1.1c11.8-.1,23.5-2.2,34.6-6.4l205.4,204.7c-4.3,11.2-6.6,23.1-6.7,35.1l.7,6.7c3.8,52.1,47.1,92.5,99.3,92.7,14.8,0,29.5-3.4,42.8-10l-66.7-66.7c-3.1-3.3-5.5-7.3-7.1-11.6-6.1-17.4,3-36.4,20.3-42.5,3.4-1.2,7-1.9,10.7-1.9,3.8.1,7.6.9,11.1,2.3,4.5,1.5,8.6,4.1,12,7.4l66.7,66.7c24.5-48.8,4.8-108.2-44-132.7-12.1-6.3-25.4-9.8-39-10.5Z"/>
    </g>
  </g>
</svg>