<?xml version="1.0" encoding="UTF-8"?>
<svg id="Layer_2" data-name="Layer 2" xmlns="http://www.w3.org/2000/svg" viewBox="0 0 787.69 787.69">
  <defs>
    <style>
      .cls-1 {
        fill: #f2f2f2;
        stroke-width: 0px;
      }
    </style>
  </defs>
  <g id="Layer_1-2" data-name="Layer 1">
    <path class="cls-1" d="M606.22,705.51c-40.77-176.86-278.43-265.32-334.09-329.6-28.62-33.05-21.45-68.15-3.57-87.05,19.2-20.25,55.78-24.25,83.08-6.43,23.88,15.54,70.34,58.65,80.77,74.55,10.43,15.88,10.31,29.02,15.91,39.69,6.37,12,20.77,18.4,41.63,12.15,19.32-5.75,30-13.38,30-13.38,0,0-20.18-.77-28.18-12.12,0,0-28-61.38-38.03-86.49,32.09,8.52,52.46,18.37,66.71,27.35,1.75,13.66-4.06,37.2-4.31,38.25.65-.37,11.02-6.49,26.43-21.85.77.65,1.54,1.26,2.28,1.85,5.45,4.34-4.58,38.65-4.58,38.65,0,0,18.83-12.65,33.23-29.75,12.46-14.74,22.95-33.45,22.95-33.45,0,0-40.77-17.23-59.57-47.08-18.86-29.82-2.43-62.18-2.43-62.18,0,0-31.45-10.09-57.78-48.06-27.69-39.94-16.98-89.02-16.98-89.02-22.52,9.05-42.28,53.85-42.28,53.85,0,0-56.89-30.37-130.8-20.92-66.68-.18-128.65-40.62-154.37-104.46,0,0-19.91,87.35,55.51,142.34-4.09,2.77-8.18,5.69-12.28,8.83-36.8,20.95-83.54,19.72-119.54-5.51,0,0,1.91,13.11,8.92,28.86,7.02,15.72,19.11,34.12,39.51,44.71,2.18,1.14,4.34,2.06,6.46,2.86-4.25,6.77-8.18,13.78-11.72,20.98-20.09,33.72-60.43,50.77-99.08,40.68,0,0,20.28,37.02,56.65,41.54,8.4,1.05,15.72-.22,22-2.71-.31,15.32.46,29.66,2.18,43.26-.92,29.78-21.02,56.22-50.31,64.58h-.03s28.25,16.8,54.4,5.48c5.11-2.22,9.05-5.23,12.09-8.58,21.48,51.88,60.43,93.72,110.09,141.45,13.32,12.83,28.28,26.55,43.45,40.86,149.23,8.62,262.22,75.42,357.91,178.06,3.02-22.28,5.23-49.91-2.22-82.18ZM448.95,210.18l42.22,42-67.38-24.31,25.17-17.69ZM550.78,404.61s20.63,21.03,49.25,25.22c-1.93,11.44-4.85,17.14-4.85,17.14,0,0,49.11,39.54,109.26,14.07-2.78,31.62-41.98,45.57-41.98,45.57,0,0,42.11,52.19,125.24,20.17-45.1,58.69-112.43,42.34-153.38,21.37-36.81-18.85-84.2-74.51-83.54-143.53Z"/>
  </g>
</svg>