<?xml version="1.0" encoding="UTF-8"?>
<svg id="Layer_2" data-name="Layer 2" xmlns="http://www.w3.org/2000/svg" viewBox="0 0 775 775">
  <defs>
    <style>
      .cls-1 {
        fill: #f2f2f2;
        stroke-width: 0px;
      }
    </style>
  </defs>
  <g id="Layer_1-2" data-name="Layer 1">
    <path class="cls-1" d="M752.34,81.72c-7.5-28.44-29.84-50.78-58.28-58.44-37.34-10-95.63-21.87-163.75-23.28l244.69,245c-1.25-67.97-12.81-125.94-22.66-163.28ZM22.66,693.28c7.5,28.44,29.84,50.78,58.28,58.44,37.34,10,95.63,21.88,163.75,23.28L0,530c1.25,67.97,12.81,125.94,22.66,163.28h0ZM6.56,430.31l337.81,338.44c207.03-30.31,388.75-185.47,424.22-424.06L430.63,6.25C223.59,36.56,41.87,191.72,6.56,430.31ZM502.34,237.19c4.84-4.84,12.81-4.84,17.66,0l17.66,17.66c4.84,4.84,4.84,12.81,0,17.66l-44.22,44.22,44.22,44.22c4.84,4.84,4.84,12.81,0,17.66l-17.66,17.66c-4.84,4.84-12.81,4.84-17.66,0l-44.22-44.22-35.31,35.47,44.22,44.22c4.84,4.84,4.84,12.81,0,17.66l-17.66,17.66c-4.84,4.84-12.81,4.84-17.66,0l-44.22-44.22-35.31,35.31,44.22,44.22c4.84,4.84,4.84,12.81,0,17.66l-17.66,17.66c-4.84,4.84-12.81,4.84-17.66,0l-44.22-44.22-44.22,44.22c-4.84,4.84-12.81,4.84-17.66,0l-17.66-17.66c-4.84-4.84-4.84-12.81,0-17.66l44.22-44.22-44.22-44.06c-4.84-4.84-4.84-12.81,0-17.66l17.66-17.66c4.84-4.84,12.81-4.84,17.66,0l44.22,44.22,35.31-35.31-44.22-44.22c-4.84-4.84-4.84-12.81,0-17.66l17.66-17.66c4.84-4.84,12.81-4.84,17.66,0l44.22,44.22,35.31-35.31-44.22-44.22c-4.84-4.84-4.84-12.81,0-17.66l17.66-17.66c4.84-4.84,12.81-4.84,17.66,0l44.22,44.22,44.22-44.53h0Z"/>
  </g>
</svg>