<?xml version="1.0" encoding="UTF-8"?>
<svg id="Layer_2" data-name="Layer 2" xmlns="http://www.w3.org/2000/svg" viewBox="0 0 453.52 799.95">
  <defs>
    <style>
      .cls-1 {
        fill: #f2f2f2;
        stroke-width: 0px;
      }
    </style>
  </defs>
  <g id="_2" data-name="2">
    <g>
      <path class="cls-1" d="M256.55,146.75c4.7-37.7-22.1-72-59.8-76.7s-72,22.1-76.7,59.8c-4.7,37.7,22.1,72,59.8,76.7,37.7,4.6,72-22.1,76.7-59.8Z"/>
      <path class="cls-1" d="M427.65,358.95c-32.1-51.4-57.6-109.8-64.2-121.2-3.9-6.7-4.3-11.5-1.2-18.2,13.1-19,26.5-37.8,40.1-56.4,11.8-16.2,28.6-34.1,22.2-56.1-3.7-12.7-14.9-17.9-24.4-25.7-23.8-19.4-47.5-39-71.5-58.3-6.7-5.4-13.2-11.1-20-16.3-11-9.8-28-8.8-37.8,2.2-8.3,9.3-8.8,22.8-2.1,32.7l-25,26.1c6.1,4.8,11.6,10.4,16.3,16.6l25-26,63,61.1-49.8,53.1c-27.5,27-92.9,65.7-78,120.4,11.4,41.6,50.7,113.1,50.7,133.3,0,28-15.3,169.2-15.3,169.2-.1.5-.1,1.1-.2,1.7l-44.4,153.3c-5,16.6,4.3,34.1,20.9,39.1s34.1-4.3,39.2-20.9l53.4-142c.7-1.6,1.4-3.4,1.9-5.2l.6-1.5c.8-2.7,28.9-135.6,28.9-135.6l1.2-12.4-13.4,133.3c-.4,2.3-.6,4.7-.6,7.2l6.6,152.6c0,19.3,15.6,34.9,34.9,34.9s34.9-15.6,34.9-34.9l9-147.1,21.5-135.8c4.7-41.9,9.8-71.8-22.4-123.2Z"/>
      <path class="cls-1" d="M119.95,196.65L5.55,315.75c-5.8,6.1-7.2,15.2-3.5,22.7l29,58.6c2.3,4.7,6.5,8.1,11.5,9.4s10.4.4,14.7-2.5l21.8-14.7c4.3-2.9,7.1-7.5,7.8-12.7s-1-10.3-4.4-14.2l-39-52.5,93.8-97.7c-6.4-4.2-12.1-9.5-17.3-15.5Z"/>
    </g>
  </g>
</svg>