<?xml version="1.0" encoding="utf-8"?>
<!-- Generator: Adobe Illustrator 28.2.0, SVG Export Plug-In . SVG Version: 6.00 Build 0)  -->
<svg version="1.1" id="_x32_" xmlns="http://www.w3.org/2000/svg" xmlns:xlink="http://www.w3.org/1999/xlink" x="0px" y="0px"
	 viewBox="0 0 800 800" style="enable-background:new 0 0 800 800;" xml:space="preserve">
<style type="text/css">
	.st0{fill:#F2F2F2;}
</style>
<g>
	<path class="st0" d="M429.8,146.8c4.7-37.7-22.1-72-59.8-76.7s-72,22.1-76.7,59.8c-4.7,37.7,22.1,72,59.8,76.7
		C390.8,211.2,425.1,184.5,429.8,146.8z"/>
	<path class="st0" d="M600.9,359c-32.1-51.4-57.6-109.8-64.2-121.2c-3.9-6.7-4.3-11.5-1.2-18.2c13.1-19,26.5-37.8,40.1-56.4
		c11.8-16.2,28.6-34.1,22.2-56.1c-3.7-12.7-14.9-17.9-24.4-25.7c-23.8-19.4-47.5-39-71.5-58.3c-6.7-5.4-13.2-11.1-20-16.3
		c-11-9.8-28-8.8-37.8,2.2c-8.3,9.3-8.8,22.8-2.1,32.7l-25,26.1c6.1,4.8,11.6,10.4,16.3,16.6l25-26l63,61.1l-49.8,53.1
		c-27.5,27-92.9,65.7-78,120.4c11.4,41.6,50.7,113.1,50.7,133.3c0,28-15.3,169.2-15.3,169.2c-0.1,0.5-0.1,1.1-0.2,1.7l-44.4,153.3
		c-5,16.6,4.3,34.1,20.9,39.1c16.6,5,34.1-4.3,39.2-20.9l53.4-142c0.7-1.6,1.4-3.4,1.9-5.2l0.6-1.5c0.8-2.7,28.9-135.6,28.9-135.6
		l1.2-12.4L517,605.3c-0.4,2.3-0.6,4.7-0.6,7.2l6.6,152.6c0,19.3,15.6,34.9,34.9,34.9c19.3,0,34.9-15.6,34.9-34.9l9-147.1
		l21.5-135.8C628,440.3,633.1,410.4,600.9,359z"/>
	<path class="st0" d="M293.2,196.7L178.8,315.8c-5.8,6.1-7.2,15.2-3.5,22.7l29,58.6c2.3,4.7,6.5,8.1,11.5,9.4
		c5,1.3,10.4,0.4,14.7-2.5l21.8-14.7c4.3-2.9,7.1-7.5,7.8-12.7c0.7-5.2-1-10.3-4.4-14.2l-39-52.5l93.8-97.7
		C304.1,208,298.4,202.7,293.2,196.7z"/>
</g>
</svg>
