<?xml version="1.0" encoding="UTF-8"?>
<svg id="Layer_2" data-name="Layer 2" xmlns="http://www.w3.org/2000/svg" viewBox="0 0 666.67 600">
  <defs>
    <style>
      .cls-1 {
        fill: #f2f2f2;
        fill-rule: evenodd;
        stroke-width: 0px;
      }
    </style>
  </defs>
  <g id="Layer_1-2" data-name="Layer 1">
    <g>
      <path class="cls-1" d="M0,133.33C0,70.48,0,39.05,19.53,19.53,39.05,0,70.48,0,133.33,0h400c62.85,0,94.28,0,113.81,19.53,19.53,19.53,19.53,50.95,19.53,113.81s0,94.28-19.53,113.81c-19.53,19.53-50.95,19.53-113.81,19.53H133.33c-62.85,0-94.28,0-113.81-19.53C0,227.61,0,196.19,0,133.33ZM133.33,108.33c-13.81,0-25,11.19-25,25s11.19,25,25,25h66.67c13.81,0,25-11.19,25-25s-11.19-25-25-25h-66.67ZM275,133.33c0-13.81,11.19-25,25-25h233.33c13.81,0,25,11.19,25,25s-11.19,25-25,25h-233.33c-13.81,0-25-11.19-25-25Z"/>
      <path class="cls-1" d="M0,466.67c0-62.85,0-94.28,19.53-113.81,19.53-19.53,50.95-19.53,113.81-19.53h400c62.85,0,94.28,0,113.81,19.53s19.53,50.95,19.53,113.81,0,94.28-19.53,113.81-50.95,19.53-113.81,19.53H133.33c-62.85,0-94.28,0-113.81-19.53C0,560.95,0,529.52,0,466.67ZM133.33,441.67c-13.81,0-25,11.19-25,25s11.19,25,25,25h66.67c13.81,0,25-11.19,25-25s-11.19-25-25-25h-66.67ZM275,466.67c0-13.81,11.19-25,25-25h233.33c13.81,0,25,11.19,25,25s-11.19,25-25,25h-233.33c-13.81,0-25-11.19-25-25Z"/>
    </g>
  </g>
</svg>