<svg xmlns="http://www.w3.org/2000/svg" width="278.403782795" height="359.190521753" viewBox="0 0 40.00299 51.61099">
  <title>Birmingham Legion FC logo</title>
        <path id="bg" d="M20.002,51.611s20.001-6.125,20.001-23.394V0H0V28.217C0,45.486,20.002,51.611,20.002,51.611" style="fill: #010101"/>
          <path d="M2.50452,2.50443v25.713c0,6.281,2.985,11.689,8.871,16.074a35.84911,35.84911,0,0,0,8.626,4.669,35.82659,35.82659,0,0,0,8.625-4.669c5.887-4.385,8.872-9.793,8.872-16.074V2.50443Zm33.599,25.713a16.60792,16.60792,0,0,1-.944,5.589h-9.359v1.047l-.001,4.3v.02l-.008-.015-1.472-2.656-.573-1.036H12.67151v2.542c.103,0,.203.001.304.002l.13105.003.11395.003c.117.004.234.008.349.014a13.335,13.335,0,0,1,5.023,1.138,8.96245,8.96245,0,0,1,5.126,6.577,34.95466,34.95466,0,0,1-3.717,1.722,34.43341,34.43341,0,0,1-7.853-4.34,20.45241,20.45241,0,0,1-7.15-8.907l6.672-5.52-.801-3.033-6.708,5.548a17.12168,17.12168,0,0,1-.262-2.998V3.89941h32.204Z" style="fill: #9f8a59"/>
          <polygon points="12.63 26.059 18.05 30.727 19.84 29.247 20.561 28.651 16.991 22.452 11.571 17.783 9.061 19.86 9.625 20.84 12.63 26.059" style="fill: #9f8a59"/>
          <polygon points="29.981 23.457 30.655 21.294 32.818 20.62 30.655 19.946 29.981 17.783 29.306 19.946 27.144 20.62 29.306 21.294 29.981 23.457" style="fill: #fff"/>
          <polygon points="29.981 31.167 30.655 29.004 32.818 28.33 30.655 27.656 29.981 25.493 29.306 27.656 27.144 28.33 29.306 29.004 29.981 31.167" style="fill: #fff"/>
          <polygon points="22.276 23.457 22.951 21.294 25.113 20.62 22.951 19.946 22.276 17.783 21.602 19.946 19.439 20.62 21.602 21.294 22.276 23.457" style="fill: #fff"/>
          <polygon points="8.643 7.791 7.519 7.791 7.519 14.094 10.009 14.094 10.009 13.118 8.643 13.118 8.643 7.791" style="fill: #fff"/>
          <polygon points="12.567 11.37 14.025 11.37 14.025 10.394 12.567 10.394 12.567 8.767 14.173 8.767 14.173 7.79 11.443 7.79 11.443 14.093 14.192 14.093 14.192 13.117 12.567 13.117 12.567 11.37" style="fill: #fff"/>
          <polygon points="17.812 11.592 17.812 12.931 17.534 13.21 17.052 13.21 16.776 12.931 16.776 8.99 17.052 8.702 17.524 8.702 17.802 8.99 17.802 9.654 18.925 9.654 18.925 8.547 18.169 7.791 16.407 7.791 15.651 8.547 15.651 13.338 16.407 14.093 18.18 14.093 18.935 13.338 18.935 10.726 17.32 10.726 17.812 11.592" style="fill: #fff"/>
          <polygon points="21.051 13.255 20.34 13.255 20.34 14.094 22.886 14.094 22.886 13.255 22.175 13.255 22.175 8.629 22.886 8.629 22.886 7.79 20.34 7.79 20.34 8.629 21.051 8.629 21.051 13.255" style="fill: #fff"/>
          <path d="M25.06714,7.79022l-.756.756v4.791l.756.756h1.791l.756-.756V8.5462l-.756-.756Zm1.423,5.104-.278.288h-.499l-.278-.288V8.9902l.278-.288h.499l.278.288Z" style="fill: #fff"/>
          <polygon points="30.095 7.791 29.145 7.791 29.145 14.094 30.131 14.094 30.131 10.101 31.535 14.094 32.485 14.094 32.485 7.791 31.499 7.791 31.499 11.716 30.095 7.791" style="fill: #fff"/>
</svg>
