<?xml version="1.0" encoding="UTF-8"?>
<svg id="Layer_2" data-name="Layer 2" xmlns="http://www.w3.org/2000/svg" viewBox="0 0 606.7 463">
  <defs>
    <style>
      .cls-1 {
        fill: #f2f2f2;
        stroke-width: 0px;
      }
    </style>
  </defs>
  <g id="Layer_1-2" data-name="Layer 1">
    <path class="cls-1" d="M606.7,109.2v306.9c-.1,25.9-21,46.9-46.9,46.9H46.9c-25.9-.1-46.9-21-46.9-46.9V109.2c.1-25.9,21-46.9,46.9-46.9h122.2v-15.4c.1-25.9,21-46.9,46.9-46.9h174.6c25.9.1,46.9,21,46.9,46.9v15.4h122.2c25.9,0,46.9,21,47,46.9h0ZM447.1,262.6c0-79.4-64.4-143.8-143.8-143.8s-143.8,64.4-143.8,143.8,64.4,143.9,143.8,143.9,143.8-64.4,143.8-143.9h0ZM371.8,194.1c37.9,37.8,37.9,99.2.1,137s-99.2,37.9-137,.1-37.9-99.2-.1-137c18.2-18.2,42.8-28.4,68.5-28.4,25.7-.1,50.4,10.1,68.5,28.3h0ZM344.7,56.7c0,13,10.5,23.5,23.5,23.5s23.5-10.5,23.5-23.5-10.5-23.5-23.5-23.5h0c-12.9.1-23.4,10.6-23.5,23.5Z"/>
  </g>
</svg>