<?xml version="1.0" encoding="UTF-8"?>
<svg id="svg3976" width="219.264" height="104.225" fill="none" version="1.1" viewBox="0 0 219.264 104.225" xmlns="http://www.w3.org/2000/svg">
 <g id="g3969" transform="matrix(2.00001 0 0 2.00001 -1.73695 -57.2002)" clip-path="url(#clip0_3573_15847)">
  <path id="path3917" d="m93.21 62.5813 2.4984-5.2639h-7.858c0.8496-0.4066 1.6489-0.9111 2.3814-1.5031-1.2522-1.3511 0.9537-1.7839 1.9308-1.9418l-1.1877-5.0299-18.9048-13.8967-1.8197-0.0702-8.5309-6.2757c-3.0074 1.7546-3.967 3.8192-4.4117 5.2639-3.2224 0.336-6.401 1.0064-9.4845 2.0002-2.2469 0.661-4.9325 1.6962-9.1511 0.6902 0.2654 1.7631 1.1563 3.372 2.5101 4.5328-0.9596 0.4386-1.8548 0.9124-2.791 1.4154-3.4521 1.8365-7.8696 4.2813-18.5888 5.065 0.2312 2.6251 1.7714 4.9564 4.0958 6.1997-4.9442 2.667-10.8538 3.7432-17.1203 1.275 1.34475 3.3259 3.89936 6.0194 7.14996 7.5391h-10.8946l4.09575 4.9188-1.84309 3.9304 1.9367 2.5266h-3.14787l-3.20638 6.7554h101.323l8.677-18.1312z" fill="#ffffff"/>
  <g fill="#a32035">
   <path id="path3919" d="m93.2743 67.2018-2.2058-2.6436h-7.2963l-6.7697 14.1774h4.0665l5.4005-11.3759h2.7442l-5.4064 11.3759h4.008z"/>
   <path id="path3921" d="m77.7456 64.5582h-7.2963l-5.4591 11.5337 2.2059 2.6437h7.2963l5.459-11.5338zm-8.6713 11.3758 4.0957-8.5743h2.7208l-4.0958 8.5743z"/>
   <path id="path3923" d="m39.8893 64.5582h-7.2963l-3.1596 6.6266h-3.0308l1.925 2.3395-2.4984 5.2639h4.0606l2.2585-4.755h2.7383l-2.2527 4.755h4.0022l5.459-11.5864zm-6.4362 6.6266 1.8138-3.8251h2.7442l-1.8197 3.8251z"/>
   <path id="path3925" d="m98.3589 70.3894 1.4277-3.0297h6.1784l1.399-2.8015h-13.7737l2.2059 2.6436-1.8782 3.983 1.5388 2.0003h3.809l-1.3165 2.7489h-6.2957l-1.3282 2.8016h10.3036l3.967-8.3462z"/>
   <path id="path3927" d="m48.9291 76.8757 1.4686 1.8599h5.5936l1.3224-2.8016h-3.9729l5.4064-11.3758h-4.008z"/>
   <path id="path3929" d="m40.1232 76.8757 1.4745 1.8599h5.5877l1.3282-2.8016h-3.9728l5.4005-11.3758h-4.0021z"/>
   <path id="path3931" d="m7.26367 64.5582 2.20585 2.6436-1.87819 3.983 1.53883 2.0003h3.80904l-1.3165 2.7489h-6.29573l-1.32819 2.8016h10.3037l3.967-8.3462h-6.2372l1.4277-3.0297h9.3031l-5.3829 11.3759h4.0079l5.424-11.3759h2.8026l1.3282-2.8015z"/>
   <path id="path3933" d="m57.1674 78.7356h4.008l6.7638-14.1774h-4.0606z"/>
  </g>
  <g fill="#c6b784">
   <path id="path3935" d="m65.5988 39.9758s-3.0543-2.1816-3.1479-4.9422c-0.7276 1.3613-0.8874 2.9548-0.4447 4.4334-9.4495 1.8014-17.0558 8.0947-22.7431 12.5281-5.6872 4.4333-18.9106 13.1831-28.4069 5.9891 3.1479 3.287 14.1654 10.2002 31.3208-3.9245 7.2553-5.9892 15.3531-12.4638 23.4218-14.0839z"/>
   <path id="path3937" d="m49.836 61.353 0.6845-1.4505-0.5031-0.6316h-3.5985l-1.7553 3.6964h1.2112l0.5851-1.1698h1.1702l0.5208 1.1698h1.2053l-0.5208-1.1698h0.2809zm-1.0708-0.3099h-1.9601l0.4272-0.9008h1.9601z"/>
   <path id="path3939" d="m43.5637 59.2767-1.7436 3.6906h1.2111l1.7437-3.6906z"/>
   <path id="path3941" d="m59.7477 59.2767-1.7436 3.6906h1.2111l1.7436-3.6906z"/>
   <path id="path3943" d="m40.6206 61.1191 0.6202-0.3509 0.4154-0.8773-0.509-0.6142h-3.9261l-1.7553 3.6965h3.9026l1.0532-0.544 0.4564-0.9767zm-1.258 0.9943h-2.2702l0.2925-0.5849h2.2703zm0.6495-1.3452h-2.2819l0.2925-0.6142h2.2819z"/>
   <path id="path3945" d="m65.9966 59.2767-1.1526 2.439-1.2112-2.439h-1.0298l-1.7436 3.6906h1.0005l1.1527-2.4448 1.2112 2.4448h1.0239l1.7495-3.6906z"/>
   <path id="path3947" d="m72.8483 60.1248 0.117-0.2398-0.5091-0.6083h-3.0952l-0.9069 0.5381-1.2346 2.6086 0.4564 0.5439h3.8325l1.0532-2.2284h-2.3873l-0.3569 0.7604h1.1702l-0.2925 0.6141h-2.1123l0.9362-1.9886z"/>
   <path id="path3949" d="m78.0733 59.2767-0.6963 1.4622h-1.9601l0.6904-1.4622h-1.2111l-1.7436 3.6906h1.2111l0.6963-1.468h1.9601l-0.6904 1.468h1.2111l1.7437-3.6906z"/>
   <path id="path3951" d="m56.2839 59.2767-2.1473 2.0588-0.2809-2.0588h-1.4043l-1.7436 3.6906h1.0006l1.1877-2.5208 0.3394 2.5208h0.4973l2.6096-2.5325-1.1936 2.5325h1.2112l1.7436-3.6906z"/>
   <path id="path3953" d="m90.4482 59.2767-2.1531 2.0588-0.275-2.0588h-1.4102l-1.7436 3.6906h1.0006l1.1877-2.5208 0.3394 2.5208h0.4973l2.6096-2.5325-1.1936 2.5325h1.217l1.7436-3.6906z"/>
   <path id="path3955" d="m83.4738 59.2826h-1.1702l-3.8266 3.6964h1.2989l0.8133-0.7837h2.2644l0.1462 0.7837h1.1117zm-2.0713 2.1465 1.1702-1.1054 0.1989 1.1054z"/>
  </g>
  <path id="path3957" d="m69.8935 42.5727 4.9032 3.1115-3.5341 0.0117z" fill="#a32035"/>
  <path id="path3959" d="m72.8366 45.2105c0.2783 0.0143 0.5492-0.0924 0.7431-0.2925l-1.6033-1.0177c-0.1312 0.133-0.1975 0.3169-0.1813 0.503 0.0981 0.4905 0.5418 0.8343 1.0415 0.8072z" fill="#ffffff"/>
  <path id="path3961" d="m69.8935 42.5727 4.9032 3.1115-3.5341 0.0117 8.133 2.0588-10.017-6.3459z" fill="#c6b784"/>
  <path id="path3963" d="m84.4392 53.2408c-1.3282-0.889-2.2761-2.977-0.4213-2.6494 0.4343 0.0909 0.8565 0.2323 1.258 0.4211 0 0-1.1644 0.5088-0.8367 2.2283z" fill="#a32035"/>
  <path id="path3965" d="m75.0014 56.7969c4.2334 1.9958 9.246 1.3079 12.7846-1.7547 0 0-0.5851-1.5908 2.0245-2.474l-0.5851-2.5091-17.8399-13.1597-1.8197-0.0702-7.8931-5.8488c-1.5464 1.1176-2.5223 2.859-2.6681 4.7609-8.5191 0.4036-13.083 3.673-17.2197 3.1525 0 0 1.5798 2.281 5.2133 2.4565-8.0569 1.3393-9.2096 6.3927-24.7324 7.9777 0.8659 2.3395 4.3298 3.9596 6.6292 3.7256-2.2468 2.0003-12.5095 7.1589-18.0388 4.9305 9.4963 7.194 22.7197-1.6201 28.4069-5.9891s13.2936-10.6974 22.7431-12.4988c-0.4427-1.4785-0.2829-3.0721 0.4447-4.4334l6.7112 4.334 1.2462-0.0644 17.0968 11.914c-1.0205 0.7366-1.5748 1.9582-1.4569 3.2109-0.5233 0.3766-1.0817 0.7017-1.6675 0.9709-3.2942-1.1697-5.0202-0.3626-5.0202-0.3626l2.8845 1.0937c-1.9994 0.4466-4.0871 0.2815-5.9915-0.4737l-0.0351-1.2516-3.8617-1.8541c-1.4288 0.6805-2.9928 1.0304-4.5755 1.0235-4.0957 0-7.1032-2.3102-6.9452-5.1995-0.7545 2.1524-0.1802 4.5471 1.4686 6.1236l-2.5686 3.1525h5.9739l1.1702-1.6025c1.5095 0.0687 3.0165-0.1804 4.4234-0.7311l3.6862 0.5848z" fill="#a32035"/>
  <path id="path3967" d="m76.2536 55.6564c1.9044 0.7553 3.992 0.9203 5.9915 0.4738l-2.8846-1.0938s1.7261-0.8246 5.0202 0.3627c0.5858-0.2693 1.1443-0.5944 1.6676-0.9709-0.5597-0.3568-1.0971-0.7475-1.6091-1.1698-1.3282-0.889-2.276-2.977-0.4213-2.6495 0 0-2.2058-0.5322-2.8085 1.2107-0.5851 1.6552-2.4457 1.4856-5.9095-0.1813 0.3842-0.4304 0.6521-0.9519 0.7782-1.5148 0-0.1228 0.0351-0.2457 0.0468-0.3685-1.5272 1.2224-4.0256 1.9886-6.6878 1.8892-4.0197-0.158-6.8867-2.2343-6.4011-4.6381 0.0991-0.4664 0.2987-0.9055 0.5851-1.2867 0 0-6.3659 0-9.5664 8.4631 1.7781-2.4268 4.0981-4.4054 6.7755-5.7786-0.158 2.8893 2.8729 5.1937 6.9452 5.1996 1.5847 0.0077 3.1507-0.3422 4.5814-1.0235l3.8617 1.8423z" fill="#c6b784"/>
 </g>
 <defs id="defs3974">
  <clipPath id="clip0_3573_15847">
   <rect id="rect3971" transform="translate(.5)" width="110" height="110" fill="#ffffff"/>
  </clipPath>
 </defs>
</svg>
