<?xml version="1.0" encoding="utf-8"?>
<!-- Generator: Adobe Illustrator 28.2.0, SVG Export Plug-In . SVG Version: 6.00 Build 0)  -->
<svg version="1.1" id="Layer_1" xmlns="http://www.w3.org/2000/svg" xmlns:xlink="http://www.w3.org/1999/xlink" x="0px" y="0px"
	 viewBox="0 0 1885.3 2500" style="enable-background:new 0 0 1885.3 2500;" xml:space="preserve">
<style type="text/css">
	.st0{fill-rule:evenodd;clip-rule:evenodd;fill:#FFFFFF;}
</style>
<g>
	<path class="st0" d="M1512.4,1036.2c535.1-445-209.5-1008.5-209.5-1008.5L569.5,329l-39.8-87.5c0,0,140.6,31.2,215.5-231.1
		c0,0-93.7,137.3-265.5,37.5c-171.9-100-368.6-31.2-393.6,93.7c0,0,187.3-62.5,349.8,81.2l87.5,184.2v369.2l-158.9-22.6l-1.2-159.6
		c0,0-5.7,108.7,0-5.7C369,473.9,409,434,409,434c-251.7,51.5-241.1,286.1-241.1,286.1v315.7c-154.6,0-167.9,53-167.9,53
		c156.4,4.1,167.9,167.9,167.9,167.9V1893c0,148.8-136.5,211.8-136.5,211.8c273.2-47.3,332.8-223.2,332.8-223.2v-269.1l159.2,25
		v146.9c0,0,12.5,140.6-90.6,215.5c274.8-50,287.3-349.8,287.3-349.8v-424.5l320.6-84.5v884.2C497.2,1999,418.7,2333,418.7,2333
		l1.4,14.3c78-93.6,244.5-158.3,437.3-158.3c209.2,4.5,412.3,73.2,481,213.8c81.2-143.6,196.7-265.5,403.1-292.3v-871.1
		L1512.4,1036.2L1512.4,1036.2z M523.4,1589.8l-159.2-29.2V806.8l159.2,25V1589.8z M1522.7,1315.8v93.7
		c-218.6,84.2-396.5,3.1-396.5,3.1l-0.1-287.3l156.4-34.4L1522.7,1315.8L1522.7,1315.8z M1041.2,630.3v423.2l-320.9,78.2v-756
		l474.7-187.3c493.5,359.2,219.7,739.4,121,797.3c-30.4,17.8-52.3,20.9-52.3,20.9l-137.6,31.2V630.3h40.8l-83.5-96.7l-75.3,96.7
		L1041.2,630.3L1041.2,630.3z M1526,2040.4l-3.1,3.1c-121.7,50-184.2,118.7-184.2,118.7c-68.7-99.8-212.5-116.2-212.5-116.2
		l0.1-236.8c218.6-84.4,399.8,0,399.8,0L1526,2040.4L1526,2040.4L1526,2040.4z M1526,1709.4c0,0-181.1-84.4-399.8,0v-206.1
		c0,0,181.1,84.4,399.8,0V1709.4z M1732.9,2408h-33.6v91.7h-22.8V2408H1643v-19.7h89.9V2408L1732.9,2408z M1885.2,2500h-22.7v-88.7
		h-0.5l-32.2,88.7h-21.9l-31.2-88.7h-0.5v88.6h-22.7v-111.3h39.4l25.9,72.7h0.5l26.9-72.7h39.1L1885.2,2500L1885.2,2500L1885.2,2500
		z"/>
</g>
</svg>
