<?xml version="1.0" encoding="utf-8"?>
<!-- Generator: Adobe Illustrator 28.2.0, SVG Export Plug-In . SVG Version: 6.00 Build 0)  -->
<svg version="1.1" id="Layer_1" xmlns="http://www.w3.org/2000/svg" xmlns:xlink="http://www.w3.org/1999/xlink" x="0px" y="0px"
	 viewBox="0 0 800 800" style="enable-background:new 0 0 800 800;" xml:space="preserve">
<style type="text/css">
	.st0{fill:#F2F2F2;}
</style>
<g>
	<g>
		<path class="st0" d="M791.2,86.2l-75.1-75.1c-8.6-8.6-22.5-8.6-31.1,0l-48.4,48.4c-22.3,22.3-27.6,55-16.1,82.4
			c-1.7,1.1-3.4,2.3-4.9,3.8L143.7,617.6c-1.6,1.6-2.9,3.4-4,5.3c-27.4-11.6-60.2-6.3-82.5,16L8.8,687.3c-8.6,8.6-8.6,22.5,0,31.1
			l75.1,75.1c8.6,8.6,22.5,8.6,31.1,0l48.4-48.4c23.8-23.8,28.3-59.6,13.5-87.9c1.2-0.9,2.4-1.8,3.5-2.9l471.9-471.9
			c1-1,1.9-2.1,2.7-3.2c28.3,14.8,64.1,10.3,87.9-13.5l48.4-48.4C799.8,108.8,799.8,94.8,791.2,86.2z"/>
	</g>
</g>
<g>
	<g>
		<path class="st0" d="M449.7,28.5C439.5,10.9,420.8,0,400.4,0c-20.3,0-39.2,10.8-49.4,28.4c-46.5,80.1-109,216.6-109,371.6
			c0,14.9,0.6,29.7,1.7,44.2l83.4-83.4V287c0-40.5,32.8-73.3,73.3-73.3c20.4,0,38.8,8.3,52.1,21.7l64-64
			C495.9,114.3,471.1,65.4,449.7,28.5z"/>
	</g>
</g>
<g>
	<g>
		<path class="st0" d="M556.6,351.4l-83,83V513c0,40.5-32.8,73.3-73.3,73.3c-21.6,0-41-9.3-54.4-24.2l-63,63
			c20.8,58.7,46.2,108.8,68,146.5c10.2,17.6,29,28.5,49.3,28.5c20.3,0,39.2-10.8,49.4-28.4c46.5-80.1,109-216.6,109-371.6
			C558.7,383.6,557.9,367.4,556.6,351.4z"/>
	</g>
</g>
</svg>
