<?xml version="1.0" encoding="UTF-8"?>
<svg id="Layer_2" data-name="Layer 2" xmlns="http://www.w3.org/2000/svg" viewBox="0 0 726.07 728.58">
  <defs>
    <style>
      .cls-1 {
        fill: #f2f2f2;
        fill-rule: evenodd;
        stroke-width: 0px;
      }
    </style>
  </defs>
  <g id="Layer_1-2" data-name="Layer 1">
    <path class="cls-1" d="M232.06,52.18c-9.23,16.21-17.57,36.3-25.5,59.98C145.29,278.15,50.52,520.82,4.77,637.33c-20.78,52.91,29.83,105.88,83.63,87.55,117.23-39.94,359.71-121.99,525.47-174.24l.5-.16c23.78-7.92,43.85-16.04,59.96-25.01,15.94-8.88,30.2-19.79,39.78-34.31,21.87-33.14,9.75-67.83-4.71-94.64C618.4,227.81,504.65,109.25,362.59,19.01c-13.57-8.62-28.76-15.93-45.17-18.25-17.59-2.48-34.86,1.06-50.4,11.34-14.55,9.62-25.76,23.93-34.96,40.08ZM462.4,269.71c-52.69-56.22-110.06-103.73-184.53-158.63,4.21-10.58,8.25-19.12,12.12-25.91,6.42-11.28,11.29-15.81,13.81-17.47,1.53-1.01,2.32-1.21,4.32-.93,3.18.45,9.11,2.4,18.73,8.51,132.32,84.06,238.23,194.09,323.89,352.88,11.93,22.12,8.08,25.95,7.76,26.25l-.02.02c-1.39,2.1-5.48,6.61-16.59,12.8-6.32,3.52-14.22,7.21-24,11.1-55.28-87.89-102.62-152.21-155.49-208.62ZM413.76,315.3c46.31,49.41,88.88,106.2,139.01,184.81-163.38,52.28-378.01,124.92-485.87,161.67l-.05.02-.02-.02-.02-.02.02-.05c42.1-107.22,125.97-321.92,187.04-485.41,65.09,48.71,114.63,90.71,159.89,139.01ZM292.7,400c36.82,0,66.67-29.85,66.67-66.67s-29.85-66.67-66.67-66.67-66.67,29.85-66.67,66.67,29.85,66.67,66.67,66.67ZM292.7,500c0,36.82-29.85,66.67-66.67,66.67s-66.67-29.85-66.67-66.67,29.85-66.67,66.67-66.67,66.67,29.85,66.67,66.67ZM392.7,533.33c36.82,0,66.67-29.85,66.67-66.67s-29.85-66.67-66.67-66.67-66.67,29.85-66.67,66.67,29.85,66.67,66.67,66.67Z"/>
  </g>
</svg>