<?xml version="1.0" encoding="utf-8"?>
<!-- Generator: Adobe Illustrator 28.2.0, SVG Export Plug-In . SVG Version: 6.00 Build 0)  -->
<svg version="1.1"
	 id="svg" xmlns:dc="http://purl.org/dc/elements/1.1/" xmlns:cc="http://creativecommons.org/ns#" xmlns:svg="http://www.w3.org/2000/svg" xmlns:rdf="http://www.w3.org/1999/02/22-rdf-syntax-ns#"
	 xmlns="http://www.w3.org/2000/svg" xmlns:xlink="http://www.w3.org/1999/xlink" x="0px" y="0px" viewBox="0 0 300 300"
	 style="enable-background:new 0 0 300 300;" xml:space="preserve">
<style type="text/css">
	.st0{fill-rule:evenodd;clip-rule:evenodd;fill:#FFFFFF;}
	.st1{fill-rule:evenodd;clip-rule:evenodd;fill:#C8102E;}
</style>
<path id="path0" class="st0" d="M57.5,10.6c-13.2,2.1-24.3,9.5-32.4,21.8c-6.9,10.4-6.4,13.5,2.2,15.8c15.4,4.2,25.1,13,28,25.5
	c0.6,2.6,0.9,37,0.4,43.2c-0.7,8.1-3.2,17.7-7.2,27.9c-2,5-2,6,0,10.9c4,10,6.5,19.4,7.3,28c0.5,5.7,0.2,41.6-0.4,44.7
	C52.6,242,44,253.5,31,261.1c-5.1,3-5,4.9,1,12.7c13.5,17.7,38.1,21.4,55.5,8.4c2.2-1.7,2.5-1.8,3.7-1.8c9.1,0.4,11.2,0.4,14,0
	c12.4-2,22.2-9.8,28.9-22.9c2.7-5.3,2.8-4.8-1.6-7.1c-14-7.1-20.2-15.8-21.6-29.9c-0.4-3.9-0.4-87.1,0-88.4c2.2-8.1,7,16.9,7.6,40.3
	c0.2,7.5,0.4,8.1,3.7,10.4c16.3,11.2,24.6,20.3,37.9,41.2c2.2,3.5,8.4,13.4,13.9,22.1c15.4,24.5,18.8,28.5,29.7,35.3
	c28.5,17.6,61.6,7.9,74.8-22.1c2.1-4.7,1.7-5.2-4.9-6.8c-17.9-4.6-28.2-14-30.3-27.8c-0.6-4-0.6-38,0-43.2
	c0.9-8.1,3.2-16.3,6.9-25.6c2.3-5.7,2.3-6.2-0.1-12.4c-3.7-9.5-6.1-18.4-6.9-26.4c-0.6-6.4-0.2-42.6,0.5-46.1
	c2.8-13.2,11.1-24.2,24.3-32c5.2-3.1,4.8-5.5-2.4-14.2c-13.5-16.2-37.5-19.4-53.9-7c-2.8,2.1-3.4,2.3-5.3,2
	c-2.3-0.5-10.4-0.4-13.4,0.2c-11.1,2.1-20,8.7-26.5,19.6c-3.5,5.8-2.7,8.6,3.2,12.1c10.4,6.1,15.7,13.4,17.8,24.6l0.6,3.3V124
	c0,48.7,0.1,46.3-1.5,46c-2.2-0.4-5.5-21.4-6.2-40.1l-0.3-8.6l-0.8-1.3c-0.5-0.9-1.4-1.7-2.9-2.8c-18.3-12.5-24.1-19.4-46.6-55.2
	C112,33.6,112.1,33.6,107,28.4C93.7,14.6,75,7.9,57.5,10.6"/>
<path id="path1" class="st1" d="M60.9,19.7C50.8,20.8,41.7,26,35.7,34c-3.4,4.6-3.3,5.4,1.6,7.2C54,47.4,63.7,60.4,65.2,78.5
	c0.5,5.8,0.2,39.2-0.4,43.5c-1,7.6-3,15.4-5.5,22.1c-2,5.3-2.1,7-0.5,11.1c3.2,8.5,5.2,16.3,6.2,25.1c0.5,4.3,0.5,42.4,0,46.2
	c-2.2,16.4-9.2,29.1-20.1,36.6c-4.7,3.3-4.9,3.7-2.9,6.3c7.5,10.2,21.7,14,33.8,8.9c3-1.2,6.1-3.4,9-6.2c2.8-2.8,2.6-2.7,5.8-1.8
	c10,2.9,20.7,0.2,27.9-7c5.1-5.1,5.3-6.4,1.3-9.3c-8-5.7-13.6-14.3-16.3-25.1c-1.8-7.3-1.7-2.8-1.9-70.2
	c-0.1-42.8-0.3-62.1-0.5-64.5c-0.5-4.9,0-6.4,1.8-6.4c1.4,0,2.6,1.5,4.7,5.5c10.9,21.1,18.1,47.8,20.2,73.9
	c0.5,6.7,1.1,7.8,5.6,10.5c13.6,8.3,20.2,16.3,38.1,46.2c11.7,19.5,21,33.9,24.6,38.1c19.7,23.5,53.8,24.7,68.5,2.4
	c2-3,1.5-4.2-2.4-5.5c-14.7-5.1-24.9-17-27.7-32.4c-0.9-4.8-1-42.9-0.1-48.8c1.1-7.7,3.1-15.4,5.6-21.9c2-5.2,2-6.9,0.1-11.9
	c-2.6-6.7-4.6-14.6-5.7-22.4c-0.7-5.4-0.8-44.6,0-49.5c2.4-15.7,9.8-28.4,20.6-35.6c3.5-2.3,3.9-3.3,2.6-5.2
	c-9.9-14.2-30.9-15.7-43.3-3.2c-2.6,2.6-2.4,2.6-6.4,1.5c-10.4-2.8-21.8,0.7-28.7,8.9c-3.4,4-3.5,5-0.4,7.1
	c8.3,5.6,14.4,14.7,17,25.5c1.6,6.6,1.5,1.7,1.7,66.9c0.1,39.9,0.3,61.2,0.5,64c0.6,7.9,0.4,9.5-0.9,10.2c-2.1,0.9-4.3-2.2-9.2-13.2
	c-9.2-20.8-14.8-43.5-16.5-67.2c-0.4-5.5-1-6.4-6.5-10.1c-12-8-19.7-17-33-39c-7.4-12.2-8.9-14.7-14.9-24.1
	C105,39.9,103.8,38.3,98.8,33.5C88.2,23.3,74,18.2,60.9,19.7"/>
</svg>
