<?xml version="1.0" encoding="utf-8"?>
<!-- Generator: Adobe Illustrator 28.2.0, SVG Export Plug-In . SVG Version: 6.00 Build 0)  -->
<svg version="1.1" id="Layer_1" xmlns="http://www.w3.org/2000/svg" xmlns:xlink="http://www.w3.org/1999/xlink" x="0px" y="0px"
	 viewBox="0 0 146.3 159.7" style="enable-background:new 0 0 146.3 159.7;" xml:space="preserve">
<style type="text/css">
	.st0{fill:#FFD200;}
	.st1{fill:#FFFFFF;}
	.st2{fill:#E21833;}
</style>
<path d="M3,1.1L3,1.1l10.6,28.1l0,83.5L2.1,138h44V86L64,126.3h17.5L99.4,86v52H144l-12.1-25.3V29.1l10.4-28l-41.3,0L72.7,66.4
	L44.5,1.1L3,1.1L3,1.1z M0.9,146L0.9,146l3.8,6.3l-3.8,6.4h144.3l-3.8-6.4l3.8-6.3H0.9L0.9,146z"/>
<path class="st0" d="M7.7,4.3L7.7,4.3L7.7,4.3L7.7,4.3z M7.7,4.3l9.1,24.4l0,84.8l-9.7,21.3h35.8V70.9l23.2,52.2h13.3l23.2-52.2
	v63.9h36.3l-10.2-21.3V28.6l9-24.2h-34.6L72.7,74.5L42.4,4.3L7.7,4.3L7.7,4.3z M10.3,148.3v8.3h6.6v-4.2l-6.4-4.1H10.3
	C10.3,148.3,10.3,148.3,10.3,148.3z M18.3,148.3v4l6.5,4.4H25v-8.3L18.3,148.3L18.3,148.3z M31.8,148.3L33,149v-0.7H31.8z
	 M42.3,148.3v7l2,1.4h5.1l0-8.3L42.3,148.3L42.3,148.3z M104.7,148.3v8.3h6.6v-4.2l-6.4-4.1C105,148.3,104.7,148.3,104.7,148.3z
	 M112.7,148.3v4l6.5,4.4h0.1v-8.3L112.7,148.3L112.7,148.3z M126.3,148.3l1.1,0.7v-0.7H126.3z M136.7,148.3v7l2,1.4h2.4l-2.9-4.2
	l2.9-4.1L136.7,148.3L136.7,148.3z M34.3,150.9v5.7H41v-1.3L34.3,150.9z M128.7,150.9v5.7h6.6v-1.3L128.7,150.9z"/>
<polygon class="st1" points="11,6.6 11,6.7 19.1,28.3 19.1,114 10.7,132.5 40.6,132.5 40.6,59.9 67.6,120.8 77.9,120.8 104.9,60 
	104.9,132.5 135.2,132.5 126.3,114 126.3,28.1 134.3,6.6 104.6,6.6 72.7,80.3 40.9,6.6 11,6.6 "/>
<path class="st2" d="M55.2,148.3c-0.2,0.4-0.4,0.9-0.5,1.4c-2.8,0.2-4.9,1.3-4.9,2.7H73v-4.1h-3.5v1h-9c-0.1-0.4-0.2-0.7-0.4-1
	C60.1,148.3,55.2,148.3,55.2,148.3z"/>
<path class="st2" d="M73,152.4v4.2h3.5v-1h9.1c0.1,0.4,0.2,0.7,0.4,1h4.9c0.2-0.4,0.4-0.9,0.5-1.5c2.8-0.2,4.9-1.3,4.9-2.7v0
	L73,152.4L73,152.4z"/>
<path class="st2" d="M96.3,152.4h0.4v-4.1h-5.7c0.2,0.4,0.4,0.9,0.5,1.4C94.2,149.9,96.3,151,96.3,152.4z"/>
<path class="st2" d="M49.8,152.4h-0.3l0,4.2h5.7c-0.2-0.4-0.4-0.9-0.5-1.5C51.9,155,49.8,153.8,49.8,152.4L49.8,152.4L49.8,152.4z"
	/>
<path class="st2" d="M76.5,148.3v1h9.1c0.1-0.4,0.2-0.7,0.4-1H76.5C76.5,148.3,76.5,148.3,76.5,148.3z"/>
<path class="st2" d="M60.5,155.6c-0.1,0.4-0.2,0.7-0.4,1h9.4v-1C69.5,155.6,60.5,155.6,60.5,155.6z"/>
<path class="st1" d="M49.5,148.3l0,4.1h0.3c0-1.4,2.1-2.5,4.9-2.7c0.1-0.5,0.3-1,0.5-1.4L49.5,148.3L49.5,148.3z M49.8,152.4
	C49.8,152.4,49.8,152.4,49.8,152.4c0,1.4,2,2.6,4.9,2.7c0.1,0.5,0.3,1,0.5,1.5h4.9c0.2-0.3,0.3-0.7,0.4-1h9v1H73v-4.2L49.8,152.4
	L49.8,152.4z M73,152.4h23.3c0-1.4-2.1-2.5-4.9-2.7c-0.1-0.5-0.3-1-0.5-1.4h-5c-0.1,0.3-0.3,0.6-0.4,1h-9.1v-1H73L73,152.4L73,152.4
	z M96.3,152.4L96.3,152.4c0,1.4-2,2.6-4.9,2.7c-0.1,0.5-0.3,1-0.5,1.5h5.8v-4.2L96.3,152.4L96.3,152.4z M60.1,148.3
	c0.1,0.3,0.3,0.6,0.4,1h9v-1H60.1L60.1,148.3z M76.5,155.6v1H86c-0.2-0.3-0.3-0.7-0.4-1H76.5L76.5,155.6z"/>
</svg>
