<?xml version="1.0" encoding="UTF-8"?>
<svg id="Layer_2" data-name="Layer 2" xmlns="http://www.w3.org/2000/svg" viewBox="0 0 800 565.87">
  <defs>
    <style>
      .cls-1 {
        fill: #f2f2f2;
        stroke-width: 0px;
      }
    </style>
  </defs>
  <g id="Layer_1-2" data-name="Layer 1">
    <g>
      <path class="cls-1" d="M647.12,195.76c-10.12,0-18.34,8.22-18.34,18.34s8.22,18.34,18.34,18.34,18.34-8.22,18.34-18.34-8.22-18.34-18.34-18.34Z"/>
      <path class="cls-1" d="M612.27,160.91c-10.12,0-18.34,8.22-18.34,18.34s8.22,18.34,18.34,18.34,18.34-8.22,18.34-18.34-8.22-18.34-18.34-18.34Z"/>
      <path class="cls-1" d="M612.27,230.6c-10.12,0-18.34,8.22-18.34,18.34s8.22,18.34,18.34,18.34,18.34-8.22,18.34-18.34-8.22-18.34-18.34-18.34Z"/>
      <path class="cls-1" d="M577.43,195.76c-10.12,0-18.34,8.22-18.34,18.34s8.22,18.34,18.34,18.34,18.34-8.22,18.34-18.34-8.22-18.34-18.34-18.34Z"/>
      <path class="cls-1" d="M798.22,407.15c-5-46.95-15.21-97.99-30.34-151.69-2.75-9.75-12.87-15.43-22.63-12.68-9.75,2.75-15.42,12.88-12.68,22.63,14.57,51.72,24.39,100.72,29.17,145.62,5.29,49.64-3.21,87.41-24.59,109.23-5.79,5.9-13.49,9.07-21.88,8.91-8.43-.16-16.19-3.68-21.85-9.92-67.26-74.02-119.7-111.55-155.88-111.55h-275.08c-36.18,0-88.63,37.53-155.89,111.55-5.66,6.23-13.42,9.75-21.85,9.91-8.34.15-16.09-3.01-21.88-8.92-21.38-21.81-29.88-59.58-24.59-109.23,10.49-98.43,42.62-193.68,60.84-241.69,5.5-14.51,15.78-26.97,28.97-35.12,2.2-1.37,4.53-2.63,6.92-3.76,30.74-14.52,85.75-33.56,173.27-41.84,28.89-2.73,59.76-4.12,91.75-4.12s62.85,1.39,91.75,4.12c87.52,8.28,142.53,27.33,173.27,41.84,2.39,1.13,4.72,2.4,6.96,3.78,13.15,8.13,23.43,20.6,28.93,35.1,2.78,7.33,9.75,11.84,17.15,11.84,2.16,0,4.36-.38,6.5-1.2,9.47-3.59,14.23-14.18,10.64-23.65-7.07-18.63-19.35-35.03-35.04-47.11v-34.57c0-26.8-19.02-50.31-45.23-55.9L573.01,1.28c-19.03-4.07-38.6,1.72-52.35,15.5l-34.5,34.53c-27.4-2.31-56.33-3.48-86.17-3.48s-58.77,1.18-86.17,3.49l-34.49-34.53c-13.75-13.77-33.32-19.57-52.35-15.5l-81.92,17.47c-26.21,5.59-45.23,29.1-45.23,55.9v34.58c-15.71,12.09-27.98,28.49-35.04,47.11C45.95,205.99,12.7,304.62,1.78,407.15c-6.59,61.77,5.14,108.47,34.86,138.79,12.93,13.2,30.3,20.22,48.77,19.92,18.36-.35,35.97-8.34,48.31-21.93,66.68-73.39,110.23-99.53,128.74-99.53h275.09c18.51,0,62.05,26.15,128.73,99.53,12.34,13.59,29.95,21.58,48.31,21.93.44,0,.88.01,1.31.01,18.03,0,34.84-7.05,47.46-19.93,29.72-30.33,41.45-77.02,34.86-138.79ZM546.62,42.69c4.92-4.93,11.91-7,18.73-5.54l81.93,17.47c9.39,2,16.2,10.42,16.2,20.03v15.12c-29.24-11.88-71.92-24.91-130.69-33.23l13.83-13.84ZM136.52,74.64c0-9.6,6.81-18.03,16.2-20.03l81.93-17.48c6.81-1.46,13.81.62,18.73,5.55l13.82,13.83c-58.77,8.33-101.45,21.35-130.69,33.23v-15.11h0Z"/>
      <path class="cls-1" d="M752.73,205.92l-1.16-3.5c-3.19-9.62-13.57-14.82-23.18-11.63-9.61,3.19-14.82,13.57-11.63,23.18l1.13,3.43c2.54,7.72,9.71,12.61,17.42,12.61,1.9,0,3.83-.3,5.74-.93,9.62-3.17,14.85-13.53,11.68-23.15Z"/>
      <path class="cls-1" d="M496.88,254.44c-38.43,0-69.69,31.26-69.69,69.69s31.26,69.69,69.69,69.69,69.69-31.26,69.69-69.69c0-38.43-31.26-69.69-69.69-69.69ZM496.88,357.14c-18.2,0-33.01-14.81-33.01-33.01s14.81-33.01,33.01-33.01,33.01,14.81,33.01,33.01-14.81,33.01-33.01,33.01Z"/>
      <path class="cls-1" d="M330.68,305.79h-16.5v-16.5c0-10.13-8.21-18.34-18.34-18.34s-18.34,8.21-18.34,18.34v16.5h-16.5c-10.13,0-18.34,8.21-18.34,18.34s8.21,18.34,18.34,18.34h16.5v16.5c0,10.13,8.21,18.34,18.34,18.34s18.34-8.21,18.34-18.34v-16.5h16.5c10.13,0,18.34-8.21,18.34-18.34s-8.21-18.34-18.34-18.34Z"/>
      <path class="cls-1" d="M195.13,144.41c-38.43,0-69.69,31.26-69.69,69.69s31.26,69.69,69.69,69.69,69.69-31.26,69.69-69.69-31.26-69.69-69.69-69.69ZM195.13,247.1c-18.2,0-33.01-14.81-33.01-33.01s14.81-33.01,33.01-33.01,33.01,14.81,33.01,33.01-14.81,33.01-33.01,33.01Z"/>
      <path class="cls-1" d="M363.32,171.91h-27.51c-10.13,0-18.34,8.21-18.34,18.34s8.21,18.34,18.34,18.34h27.51c10.13,0,18.34-8.21,18.34-18.34s-8.21-18.34-18.34-18.34Z"/>
      <path class="cls-1" d="M464.19,171.91h-27.51c-10.13,0-18.34,8.21-18.34,18.34s8.21,18.34,18.34,18.34h27.51c10.13,0,18.34-8.21,18.34-18.34s-8.21-18.34-18.34-18.34Z"/>
    </g>
  </g>
</svg>