<?xml version="1.0" encoding="UTF-8"?>
<svg id="Layer_2" data-name="Layer 2" xmlns="http://www.w3.org/2000/svg" viewBox="0 0 1000 1000">
  <defs>
    <style>
      .cls-1 {
        fill: #082567;
      }

      .cls-2 {
        fill: #54ff9b;
      }
    </style>
  </defs>
  <g id="Layer_1-2" data-name="Layer 1">
    <g>
      <rect class="cls-1" x="0" width="1000" height="1000"/>
      <path class="cls-2" d="m232.1,615.02c-.29-.67-.59-1.34-.88-2.01-15.19-35.9-22.89-74.09-22.89-113.5s7.7-77.6,22.89-113.5c14.69-34.72,35.73-65.92,62.54-92.74,26.81-26.81,58.01-47.85,92.74-62.54,35.9-15.19,74.09-22.89,113.5-22.89s77.6,7.7,113.5,22.89c34.48,14.58,65.48,35.44,92.16,61.98l43.87-73.12c-66.29-59.14-153.71-95.08-249.54-95.08-207.11,0-375,167.89-375,375,0,73.07,20.9,141.26,57.05,198.92l50.04-83.41Z"/>
      <path class="cls-2" d="m874.99,498.67h-225.68l-149.32-249.17-40.83,67.5.17.28-146.83,244.72L50.5,999.5h84l248-417.5h234.57l55.84,93.71c.41-.41.84-.81,1.25-1.22,17.71-17.71,32.88-37.34,45.39-58.63l-20.29-33.86h80.59c-3.09,10.5-6.77,20.85-11.06,31-14.69,34.72-35.73,65.92-62.54,92.74-26.81,26.81-58.01,47.85-92.74,62.54-35.9,15.19-74.09,22.89-113.5,22.89s-77.6-7.7-113.5-22.89c-17.67-7.48-34.43-16.61-50.17-27.3l-42.68,71.68c59.19,39.08,130.12,61.84,206.35,61.84,207.11,0,375-167.89,375-375,0-.28,0-.56,0-.83Zm-443.07,0l67.69-113.78,67.8,113.78h-135.49Z"/>
    </g>
  </g>
</svg>